<svg width="24" height="24" viewBox="0 0 24 24" fill="none" xmlns="http://www.w3.org/2000/svg">
<path d="M8.83542 12.29H15.1049V14.717H9.46237L8.83542 15.6877V12.29Z" fill="white"/>
<path d="M15.1049 8.40698V10.8339H9.46237L8.83542 11.8047V8.40698H15.1049Z" fill="white"/>
<path fill-rule="evenodd" clip-rule="evenodd" d="M8.83542 7.9216V5.25199C8.83542 4.86258 8.73626 4.64526 8.08308 4.64526H7.8323C7.17912 4.64526 7.07996 4.86258 7.07996 5.25199V17.872C7.07996 18.2614 7.17912 18.4787 7.8323 18.4787H8.08308C8.73626 18.4787 8.83542 18.2614 8.83542 17.872V16.1731H15.105V17.872C15.105 18.2614 15.2041 18.4787 15.8573 18.4787H16.1081C16.7613 18.4787 16.8604 18.2614 16.8604 17.872V5.25199C16.8604 4.86258 16.7613 4.64526 16.1081 4.64526H15.8573C15.2041 4.64526 15.105 4.86258 15.105 5.25199V6.95083H9.46238L8.83542 7.9216Z" fill="white"/>
<path d="M8.83545 12.2899H15.105V14.7169H9.46241L8.83545 15.6876V12.2899Z" fill="#0066FF"/>
<path d="M15.105 8.40689V10.8338H9.46241L8.83545 11.8046V8.40689H15.105Z" fill="#0066FF"/>
<path fill-rule="evenodd" clip-rule="evenodd" d="M1.15564 2.94921C0 4.62295 0 6.95294 0 11.6129C0 16.2729 0 18.6029 1.15564 20.2766C1.65592 21.0012 2.29879 21.6233 3.04752 22.1074C4.77705 23.2258 7.1847 23.2258 12 23.2258C16.8153 23.2258 19.2229 23.2258 20.9525 22.1074C21.7012 21.6233 22.3441 21.0012 22.8444 20.2766C24 18.6029 24 16.2729 24 11.6129C24 6.95294 24 4.62295 22.8444 2.94921C22.3441 2.22463 21.7012 1.60251 20.9525 1.11836C19.2229 0 16.8153 0 12 0C7.1847 0 4.77705 0 3.04752 1.11836C2.29879 1.60251 1.65592 2.22463 1.15564 2.94921ZM8.83546 7.9215V5.25189C8.83546 4.86248 8.73629 4.64517 8.08312 4.64517H7.83234C7.17916 4.64517 7.07999 4.86248 7.07999 5.25189V17.8719C7.07999 18.2613 7.17916 18.4786 7.83234 18.4786H8.08312C8.73629 18.4786 8.83546 18.2613 8.83546 17.8719V16.173H15.105V17.8719C15.105 18.2613 15.2042 18.4786 15.8573 18.4786H16.1081C16.7613 18.4786 16.8605 18.2613 16.8605 17.8719V5.25189C16.8605 4.86248 16.7613 4.64517 16.1081 4.64517H15.8573C15.2042 4.64517 15.105 4.86248 15.105 5.25189V6.95074H9.46241L8.83546 7.9215Z" fill="#0066FF"/>
</svg>
