<svg width="88" height="16" viewBox="0 0 88 16" fill="none" xmlns="http://www.w3.org/2000/svg">
<path d="M78.0421 2.77292C78.4749 1.69505 78.6914 1.15611 79.0005 0.996883C79.2687 0.858787 79.587 0.858787 79.8552 0.996882C80.1644 1.15611 80.3808 1.69505 80.8136 2.77291L81.8417 5.33302L84.5942 5.51965C85.7531 5.59823 86.3325 5.63752 86.5795 5.88236C86.7937 6.09471 86.8921 6.39749 86.8436 6.69518C86.7877 7.03844 86.342 7.41081 85.4506 8.15555L83.3335 9.92441L84.0066 12.5999C84.29 13.7263 84.4317 14.2895 84.2751 14.6001C84.1394 14.8694 83.8818 15.0565 83.5837 15.1024C83.24 15.1553 82.7481 14.8465 81.7644 14.2289L79.4279 12.762L77.0913 14.2289C76.1076 14.8465 75.6157 15.1553 75.272 15.1024C74.9739 15.0565 74.7164 14.8694 74.5806 14.6001C74.4241 14.2895 74.5657 13.7263 74.8491 12.5999L75.5222 9.92441L73.4051 8.15555C72.5137 7.41081 72.068 7.03844 72.0121 6.69518C71.9637 6.39749 72.062 6.09471 72.2762 5.88236C72.5232 5.63752 73.1027 5.59823 74.2615 5.51965L77.014 5.33302L78.0421 2.77292Z" fill="#FF8833"/>
<path d="M60.0421 2.77292C60.4749 1.69505 60.6914 1.15611 61.0005 0.996883C61.2687 0.858787 61.587 0.858787 61.8552 0.996882C62.1644 1.15611 62.3808 1.69505 62.8136 2.77291L63.8417 5.33302L66.5942 5.51965C67.7531 5.59823 68.3325 5.63752 68.5795 5.88236C68.7937 6.09471 68.8921 6.39749 68.8436 6.69518C68.7877 7.03844 68.342 7.41081 67.4506 8.15555L65.3335 9.92441L66.0066 12.5999C66.29 13.7263 66.4317 14.2895 66.2751 14.6001C66.1394 14.8694 65.8818 15.0565 65.5837 15.1024C65.24 15.1553 64.7481 14.8465 63.7644 14.2289L61.4279 12.762L59.0913 14.2289C58.1076 14.8465 57.6157 15.1553 57.272 15.1024C56.9739 15.0565 56.7164 14.8694 56.5806 14.6001C56.4241 14.2895 56.5657 13.7263 56.8491 12.5999L57.5222 9.92441L55.4051 8.15555C54.5137 7.41081 54.068 7.03844 54.0121 6.69518C53.9637 6.39749 54.062 6.09471 54.2762 5.88236C54.5232 5.63752 55.1027 5.59823 56.2615 5.51965L59.014 5.33302L60.0421 2.77292Z" fill="#FF8833"/>
<path d="M42.0421 2.77292C42.4749 1.69505 42.6914 1.15611 43.0005 0.996883C43.2687 0.858787 43.587 0.858787 43.8552 0.996882C44.1644 1.15611 44.3808 1.69505 44.8136 2.77291L45.8417 5.33302L48.5942 5.51965C49.7531 5.59823 50.3325 5.63752 50.5795 5.88236C50.7937 6.09471 50.8921 6.39749 50.8436 6.69518C50.7877 7.03844 50.342 7.41081 49.4506 8.15555L47.3335 9.92441L48.0066 12.5999C48.29 13.7263 48.4317 14.2895 48.2751 14.6001C48.1394 14.8694 47.8818 15.0565 47.5837 15.1024C47.24 15.1553 46.7481 14.8465 45.7644 14.2289L43.4279 12.762L41.0913 14.2289C40.1076 14.8465 39.6157 15.1553 39.272 15.1024C38.9739 15.0565 38.7164 14.8694 38.5806 14.6001C38.4241 14.2895 38.5657 13.7263 38.8491 12.5999L39.5222 9.92441L37.4051 8.15555C36.5137 7.41081 36.068 7.03844 36.0121 6.69518C35.9637 6.39749 36.062 6.09471 36.2762 5.88236C36.5232 5.63752 37.1027 5.59823 38.2615 5.51965L41.014 5.33302L42.0421 2.77292Z" fill="#FF8833"/>
<path d="M24.0421 2.77292C24.4749 1.69505 24.6914 1.15611 25.0005 0.996883C25.2687 0.858787 25.587 0.858787 25.8552 0.996882C26.1644 1.15611 26.3808 1.69505 26.8136 2.77291L27.8417 5.33302L30.5942 5.51965C31.7531 5.59823 32.3325 5.63752 32.5795 5.88236C32.7937 6.09471 32.8921 6.39749 32.8436 6.69518C32.7877 7.03844 32.342 7.41081 31.4506 8.15555L29.3335 9.92441L30.0066 12.5999C30.29 13.7263 30.4317 14.2895 30.2751 14.6001C30.1394 14.8694 29.8818 15.0565 29.5837 15.1024C29.24 15.1553 28.7481 14.8465 27.7644 14.2289L25.4279 12.762L23.0913 14.2289C22.1076 14.8465 21.6157 15.1553 21.272 15.1024C20.9739 15.0565 20.7164 14.8694 20.5806 14.6001C20.4241 14.2895 20.5657 13.7263 20.8491 12.5999L21.5222 9.92441L19.4051 8.15555C18.5137 7.41081 18.068 7.03844 18.0121 6.69518C17.9637 6.39749 18.062 6.09471 18.2762 5.88236C18.5232 5.63752 19.1027 5.59823 20.2615 5.51965L23.014 5.33302L24.0421 2.77292Z" fill="#FF8833"/>
<path d="M6.04209 2.77292C6.47493 1.69505 6.69135 1.15611 7.00053 0.996883C7.26868 0.858787 7.58704 0.858787 7.85519 0.996882C8.16437 1.15611 8.38079 1.69505 8.81363 2.77291L9.8417 5.33302L12.5942 5.51965C13.7531 5.59823 14.3325 5.63752 14.5795 5.88236C14.7937 6.09471 14.8921 6.39749 14.8436 6.69518C14.7877 7.03844 14.342 7.41081 13.4506 8.15555L11.3335 9.92441L12.0066 12.5999C12.29 13.7263 12.4317 14.2895 12.2751 14.6001C12.1394 14.8694 11.8818 15.0565 11.5837 15.1024C11.24 15.1553 10.7481 14.8465 9.76437 14.2289L7.42786 12.762L5.09135 14.2289C4.10762 14.8465 3.61575 15.1553 3.27202 15.1024C2.97391 15.0565 2.71636 14.8694 2.58059 14.6001C2.42405 14.2895 2.56574 13.7263 2.84912 12.5999L3.52219 9.92441L1.40507 8.15555C0.513716 7.41081 0.068037 7.03844 0.0121441 6.69518C-0.0363305 6.39749 0.0620464 6.09471 0.276246 5.88236C0.523225 5.63752 1.10266 5.59823 2.26153 5.51965L5.01402 5.33302L6.04209 2.77292Z" fill="#FF8833"/>
</svg>
