<svg width="23" height="19" viewBox="0 0 23 19" fill="none" xmlns="http://www.w3.org/2000/svg">
<path d="M10.968 18.2846H0.951801C0.423849 18.2846 0 17.8607 0 17.3328V7.31655C0 6.7886 0.423849 6.36475 0.951801 6.36475H10.968C11.496 6.36475 11.9198 6.7886 11.9198 7.31655V17.3328C11.9198 17.8607 11.496 18.2846 10.968 18.2846Z" fill="#FF8833"/>
<path fill-rule="evenodd" clip-rule="evenodd" d="M3.74797 3.33135C3.7241 3.35522 3.71387 3.38294 3.71387 3.40879V7.75138H2.22668V3.40879C2.22668 2.52965 2.94627 1.81006 3.82541 1.81006H7.99698C8.87612 1.81006 9.5957 2.52965 9.5957 3.40879V7.66215H8.10852V3.40879C8.10852 3.38294 8.09829 3.35522 8.07442 3.33135C8.05054 3.30747 8.02282 3.29725 7.99698 3.29725H3.82541C3.79956 3.29725 3.77185 3.30747 3.74797 3.33135Z" fill="#FF8833"/>
<path d="M7.56973 10.6922C7.56973 9.7999 6.84844 9.07861 5.95613 9.07861C5.06382 9.07861 4.34253 9.7999 4.34253 10.6922C4.34253 11.2945 4.67715 11.8225 5.16792 12.0976L4.34253 15.4884H5.95613H7.56973L6.74434 12.0976C7.23511 11.8225 7.56973 11.2945 7.56973 10.6922Z" fill="#8D33FF"/>
<path fill-rule="evenodd" clip-rule="evenodd" d="M20.9542 14.9376C20.7036 14.2416 19.9362 13.8805 19.2402 14.1311C18.5442 14.3817 18.1831 15.149 18.4337 15.8451C18.6843 16.5411 19.4517 16.9021 20.1477 16.6515C20.8437 16.4009 21.2048 15.6336 20.9542 14.9376ZM18.9014 13.1902C20.1171 12.7525 21.4574 13.3832 21.895 14.5988C22.3327 15.8144 21.7021 17.1547 20.4865 17.5924C19.2708 18.0301 17.9305 17.3994 17.4929 16.1838C17.0552 14.9682 17.6858 13.6279 18.9014 13.1902Z" fill="#8D33FF" stroke="#8D33FF" stroke-width="0.5" stroke-miterlimit="10"/>
<path fill-rule="evenodd" clip-rule="evenodd" d="M14.5622 1.71919C14.822 1.62564 15.1084 1.76043 15.202 2.02024L19.3041 13.4136C19.3977 13.6734 19.2629 13.9598 19.0031 14.0534C18.7433 14.1469 18.4568 14.0121 18.3633 13.7523L14.2611 2.359C14.1676 2.09919 14.3023 1.81273 14.5622 1.71919Z" fill="#8D33FF" stroke="#8D33FF" stroke-width="0.5" stroke-miterlimit="10" stroke-linecap="round" stroke-linejoin="round"/>
<path d="M14.7778 3.05371L16.1279 6.80347L14.2908 7.46493C14.031 7.55847 13.7446 7.42368 13.651 7.16387L12.6397 4.35498C12.5461 4.09517 12.6809 3.80871 12.9407 3.71516L14.7778 3.05371Z" fill="#8D33FF"/>
</svg>
