<svg width="19" height="20" viewBox="0 0 19 20" fill="none" xmlns="http://www.w3.org/2000/svg">
<path d="M18.6116 4.74793C17.953 4.4959 17.5983 3.90615 17.4407 3.5615C17.4323 3.54329 17.418 3.52774 17.3997 3.51679C17.3814 3.50584 17.3599 3.5 17.3379 3.5C17.3159 3.5 17.2944 3.50584 17.2761 3.51679C17.2578 3.52774 17.2436 3.54329 17.2352 3.5615C17.0768 3.90615 16.7208 4.49779 16.067 4.74793C16.0471 4.75564 16.0302 4.7684 16.0183 4.78463C16.0063 4.80087 16 4.81987 16 4.83929C16 4.85871 16.0063 4.87771 16.0183 4.89394C16.0302 4.91017 16.0471 4.92293 16.067 4.93065C16.725 5.18267 17.0797 5.77305 17.2366 6.11708C17.245 6.13528 17.2593 6.15083 17.2775 6.16178C17.2958 6.17273 17.3173 6.17857 17.3393 6.17857C17.3613 6.17857 17.3828 6.17273 17.4011 6.16178C17.4194 6.15083 17.4337 6.13528 17.4421 6.11708C17.6011 5.77305 17.9572 5.18205 18.6131 4.93002C18.6327 4.9221 18.6493 4.90923 18.661 4.893C18.6726 4.87676 18.6787 4.85785 18.6786 4.83856C18.6784 4.81927 18.672 4.80044 18.6601 4.78435C18.6483 4.76826 18.6314 4.7556 18.6116 4.74793V4.74793Z" fill="#8D33FF"/>
<path d="M15.6563 1.7471C14.7342 1.39426 14.2376 0.568605 14.0169 0.0860945C14.0052 0.060613 13.9852 0.0388317 13.9596 0.0235062C13.934 0.00818079 13.9039 0 13.8731 0C13.8423 0 13.8122 0.00818079 13.7866 0.0235062C13.761 0.0388317 13.741 0.060613 13.7293 0.0860945C13.5076 0.568605 13.0091 1.3969 12.0938 1.7471C12.066 1.7579 12.0422 1.77576 12.0256 1.79849C12.0089 1.82121 12 1.84781 12 1.875C12 1.90219 12.0089 1.92879 12.0256 1.95151C12.0422 1.97424 12.066 1.9921 12.0938 2.0029C13.015 2.35574 13.5115 3.18228 13.7312 3.66391C13.743 3.68939 13.763 3.71117 13.7886 3.72649C13.8142 3.74182 13.8443 3.75 13.8751 3.75C13.9059 3.75 13.936 3.74182 13.9616 3.72649C13.9872 3.71117 14.0071 3.68939 14.0189 3.66391C14.2416 3.18228 14.7401 2.35487 15.6583 2.00203C15.6858 1.99093 15.7091 1.97293 15.7254 1.95019C15.7416 1.92746 15.7502 1.90099 15.75 1.87399C15.7498 1.84698 15.7408 1.82061 15.7242 1.79809C15.7076 1.77556 15.684 1.75785 15.6563 1.7471Z" fill="#8D33FF"/>
<path d="M16 12C16 16.4183 12.4183 20 8 20C3.58172 20 0 16.4183 0 12C0 7.58172 3.58172 4 8 4C12.4183 4 16 7.58172 16 12Z" fill="#FF8833"/>
<path d="M2.99334 12.5094C2.9116 12.5532 2.84948 12.587 2.78736 12.6207C2.686 12.6746 2.59772 12.651 2.53559 12.5532C2.47347 12.4588 2.49309 12.3509 2.59118 12.2801C2.87891 12.0643 3.2026 12.0272 3.54264 12.0643C3.59169 12.071 3.644 12.0778 3.69305 12.0913C3.8173 12.1182 3.8925 12.2194 3.87288 12.3307C3.85326 12.4453 3.7519 12.5162 3.62439 12.4959C3.57207 12.4892 3.51649 12.4757 3.42821 12.4588C3.45763 12.678 3.46744 12.8837 3.51322 13.0827C3.91212 14.8868 5.03034 16.0098 6.71421 16.5257C8.23459 16.9911 9.67651 16.7449 10.9811 15.8041C11.9685 15.0892 12.5702 14.1045 12.7565 12.8635C12.7794 12.7185 12.7794 12.5701 12.7925 12.4049C12.7042 12.4217 12.629 12.4386 12.5571 12.4487C12.4524 12.4622 12.3576 12.3914 12.3347 12.2801C12.3151 12.1722 12.3511 12.0811 12.459 12.0575C12.8415 11.9631 13.2143 11.9699 13.5576 12.1924C13.7015 12.2835 13.7341 12.388 13.6655 12.506C13.6066 12.6106 13.4922 12.6241 13.3549 12.5431C13.3189 12.5229 13.2829 12.5027 13.247 12.4858C13.2077 12.7556 13.1783 13.0152 13.126 13.2749C12.8938 14.4147 12.302 15.3252 11.4225 16.0334C10.3468 16.9001 9.11086 17.2879 7.75723 17.1833C6.07662 17.0552 4.70991 16.3099 3.7519 14.8497C3.3105 14.1787 3.07181 13.4267 3.00969 12.6173C2.99988 12.5836 2.99661 12.5566 2.99334 12.5094Z" fill="#8D33FF"/>
<path fill-rule="evenodd" clip-rule="evenodd" d="M12.5322 12.2456C12.5329 12.2474 12.5336 12.2487 12.5342 12.2496C12.5352 12.2512 12.5359 12.2517 12.5357 12.2516C12.5355 12.2514 12.5348 12.251 12.5336 12.2506C12.5324 12.2503 12.5316 12.2503 12.5315 12.2503C12.5314 12.2503 12.5315 12.2503 12.5315 12.2503L12.557 12.4487L12.5292 12.2507C12.5736 12.2444 12.617 12.2357 12.6705 12.225C12.6959 12.2199 12.7237 12.2144 12.7549 12.2084L12.7673 12.2061C12.691 12.2133 12.6127 12.2267 12.5322 12.2456ZM13.0088 12.2057L12.9918 12.4206C12.9882 12.4664 12.9855 12.5157 12.9827 12.5666C12.9769 12.6744 12.9706 12.7895 12.9541 12.8939C12.7598 14.1871 12.1296 15.2195 11.0983 15.9661C9.74399 16.9428 8.23699 17.201 6.65563 16.717C4.9067 16.1811 3.73348 15.0043 3.31807 13.1267C3.28493 12.9823 3.26807 12.8253 3.25223 12.6778C3.24506 12.611 3.2381 12.5462 3.22994 12.4854L3.1993 12.2572C3.19166 12.2579 3.18405 12.2587 3.17647 12.2595L3.19282 12.4956C3.19578 12.5383 3.19789 12.5484 3.20169 12.5615L3.20747 12.5814L3.20906 12.602C3.26884 13.3809 3.49788 14.0997 3.91895 14.7398C4.84089 16.145 6.14981 16.8602 7.77239 16.9839C9.07423 17.0844 10.2602 16.713 11.297 15.8777C12.1429 15.1966 12.7077 14.326 12.9299 13.2352C12.9668 13.0521 12.9916 12.8714 13.0178 12.68C13.0278 12.6074 13.0379 12.5334 13.049 12.457L13.0841 12.2161C13.0592 12.2117 13.0341 12.2082 13.0088 12.2057ZM13.2053 12.2454L13.3318 12.3047C13.3746 12.3247 13.416 12.3481 13.4502 12.3673L13.4564 12.3708C13.4665 12.3767 13.4754 12.3813 13.4831 12.3848C13.4752 12.3782 13.4646 12.3703 13.4506 12.3614L13.4487 12.3602C13.37 12.3092 13.2889 12.2714 13.2053 12.2454ZM2.91571 12.3241C2.85613 12.3482 2.79862 12.3789 2.74302 12.4172C2.78946 12.392 2.83889 12.3653 2.89877 12.3332L2.91571 12.3241ZM3.42687 12.255L3.46568 12.2624C3.50581 12.27 3.53601 12.2762 3.56061 12.2813C3.5983 12.289 3.62286 12.2941 3.64991 12.2976L3.6557 12.2983C3.66563 12.2999 3.67182 12.2993 3.67473 12.2987C3.67496 12.2986 3.67518 12.2986 3.67538 12.2986C3.67543 12.2983 3.67547 12.2981 3.67552 12.2979C3.67288 12.2954 3.66572 12.29 3.65057 12.2867L3.64523 12.2855L3.63997 12.2841C3.60693 12.275 3.56987 12.2699 3.51819 12.2628C3.4873 12.2595 3.45686 12.2568 3.42687 12.255ZM13.6655 12.024C13.261 11.7622 12.8269 11.7611 12.4132 11.8628C12.3075 11.8867 12.2201 11.9499 12.1709 12.0462C12.1249 12.1363 12.123 12.2339 12.1379 12.3159L12.1388 12.3204C12.1804 12.5229 12.3617 12.6728 12.5775 12.6477C12.5736 12.7112 12.5688 12.77 12.5589 12.8323L12.5587 12.8338C12.3802 14.0222 11.8073 14.9589 10.864 15.6419C9.60918 16.5468 8.23211 16.7812 6.77275 16.3345C5.15419 15.8386 4.091 14.7697 3.70846 13.0395L3.70808 13.0378C3.68234 12.926 3.66985 12.8188 3.65709 12.6991C3.85701 12.703 4.03392 12.5751 4.06997 12.3644L3.87283 12.3307L4.0698 12.3654C4.11091 12.1322 3.94849 11.9448 3.74107 11.8971C3.68304 11.8816 3.6236 11.8735 3.58038 11.8676C3.57675 11.8671 3.57324 11.8666 3.56985 11.8661L3.56429 11.8654C3.19652 11.8253 2.81536 11.8625 2.47244 12.1191C2.3897 12.1794 2.32757 12.2651 2.30704 12.3691C2.28641 12.4737 2.31188 12.5765 2.36757 12.6618C2.41743 12.7398 2.49183 12.8094 2.59499 12.8371C2.67746 12.8591 2.75735 12.8487 2.82796 12.8216C2.91335 13.5904 3.15784 14.3106 3.58476 14.9596C4.57879 16.4746 6.00331 17.2501 7.74178 17.3827C9.14721 17.4913 10.4333 17.0871 11.5479 16.1891C12.461 15.4539 13.0798 14.5036 13.3219 13.3148C13.3576 13.1377 13.3834 12.9581 13.4077 12.7811C13.4576 12.7939 13.5099 12.7991 13.5632 12.7927C13.6848 12.7783 13.7811 12.7075 13.839 12.6054C13.8935 12.5111 13.9212 12.3957 13.8808 12.2754C13.8428 12.1626 13.7568 12.082 13.6655 12.024Z" fill="#8D33FF"/>
<path d="M6.79995 10.0467C6.78987 10.7775 6.73947 11.341 6.51433 11.8737C6.4572 12.0103 6.37655 12.14 6.28247 12.2493C6.10773 12.4542 5.88931 12.4474 5.71122 12.2459C5.49616 12.0034 5.39535 11.6995 5.3315 11.3888C5.15005 10.5351 5.14669 9.68137 5.38191 8.83791C5.43903 8.62619 5.53648 8.41447 5.65745 8.23007C5.85571 7.92274 6.13797 7.92616 6.35303 8.22324C6.57145 8.52716 6.66554 8.8823 6.7193 9.24427C6.76299 9.56185 6.78315 9.88625 6.79995 10.0467Z" fill="#8D33FF"/>
<path fill-rule="evenodd" clip-rule="evenodd" d="M9.67665 10.2215C9.48915 10.3693 9.38715 10.5191 9.35545 10.6135C9.28949 10.8098 9.07686 10.9155 8.88054 10.8495C8.68422 10.7836 8.57855 10.5709 8.64451 10.3746C8.73781 10.0969 8.95456 9.83574 9.21237 9.63252C9.47623 9.42455 9.81453 9.2519 10.192 9.17298C10.5723 9.09345 10.9958 9.10878 11.4155 9.28399C11.8357 9.45937 12.2278 9.78473 12.562 10.286C12.6769 10.4584 12.6303 10.6912 12.458 10.8061C12.2857 10.921 12.0528 10.8744 11.938 10.7021C11.6722 10.3034 11.3893 10.0857 11.1266 9.97611C10.8636 9.86632 10.5964 9.85463 10.3455 9.9071C10.0917 9.96017 9.85811 10.0785 9.67665 10.2215Z" fill="#8D33FF"/>
</svg>
