<svg width="23" height="20" viewBox="0 0 23 20" fill="none" xmlns="http://www.w3.org/2000/svg">
<path d="M0.601789 9.3984C0.26943 8.63957 0.615157 7.75498 1.37399 7.42263L12.9426 2.35576C13.7014 2.0234 14.586 2.36912 14.9183 3.12796L17.477 8.96991C17.8094 9.72874 17.4637 10.6133 16.7048 10.9457L5.13626 16.0126C4.37743 16.3449 3.49284 15.9992 3.16048 15.2404L0.601789 9.3984Z" fill="#8D33FF"/>
<path d="M4.89842 11.4165C4.56606 10.6576 4.91179 9.77305 5.67062 9.44069L17.2392 4.37382C17.998 4.04146 18.8826 4.38719 19.215 5.14602L21.7737 10.988C22.106 11.7468 21.7603 12.6314 21.0015 12.9638L9.43289 18.0306C8.67406 18.363 7.78947 18.0173 7.45711 17.2584L4.89842 11.4165Z" fill="#FF8833"/>
<mask id="mask0_301_226" style="mask-type:alpha" maskUnits="userSpaceOnUse" x="4" y="4" width="18" height="15">
<path d="M5.02281 11.362C4.69045 10.6032 5.03618 9.71861 5.79501 9.38625L17.2391 4.3739C17.9979 4.04155 18.8825 4.38727 19.2149 5.14611L21.7736 10.9881C22.1059 11.7469 21.7602 12.6315 21.0014 12.9638L9.55728 17.9762C8.79844 18.3085 7.91386 17.9628 7.5815 17.204L5.02281 11.362Z" fill="#FF8833"/>
</mask>
<g mask="url(#mask0_301_226)">
<path fill-rule="evenodd" clip-rule="evenodd" d="M22.7293 9.61313L6.29637 16.8105L5.69458 15.4365L22.1275 8.23914L22.7293 9.61313Z" fill="#8D33FF"/>
<path d="M18.3713 6.55969C18.6186 7.12447 18.3613 7.78283 17.7966 8.03019C17.2318 8.27756 16.5734 8.02024 16.3261 7.45547C16.0787 6.8907 16.336 6.23233 16.9008 5.98497C17.4656 5.73761 18.1239 5.99492 18.3713 6.55969Z" fill="#8D33FF"/>
</g>
</svg>
