<svg width="13" height="19" viewBox="0 0 13 19" fill="none" xmlns="http://www.w3.org/2000/svg">
<path fill-rule="evenodd" clip-rule="evenodd" d="M11.4 0H1.26663V5.06667C1.26663 6.97428 2.32085 8.63566 3.87848 9.49999C2.32084 10.3643 1.2666 12.0257 1.2666 13.9333L1.2666 19H11.3999V13.9333C11.3999 12.0257 10.3457 10.3643 8.78809 9.50001C10.3457 8.63568 11.4 6.97429 11.4 5.06667V0Z" fill="#8D33FF"/>
<mask id="mask0_301_3170" style="mask-type:alpha" maskUnits="userSpaceOnUse" x="1" y="0" width="11" height="19">
<path fill-rule="evenodd" clip-rule="evenodd" d="M11.4 0H1.26663V5.06667C1.26663 6.97428 2.32085 8.63566 3.87848 9.49999C2.32084 10.3643 1.2666 12.0257 1.2666 13.9333L1.2666 19H11.3999V13.9333C11.3999 12.0257 10.3457 10.3643 8.78809 9.50001C10.3457 8.63568 11.4 6.97429 11.4 5.06667V0Z" fill="#731DE0"/>
</mask>
<g mask="url(#mask0_301_3170)">
<path d="M10.1332 9.50023H3.16658L1.89991 9.07791C1.54806 8.09272 0.928802 6.24902 1.26658 6.75569C1.6888 7.38902 4.01102 7.60023 6.96658 6.54467C9.33102 5.70023 11.0481 6.4743 11.611 6.96689L10.1332 9.50023Z" fill="#FF8833"/>
<path d="M0.82458 18.1557H10.6839L12.4765 17.5669C12.9745 16.1933 13.8508 13.6229 13.3728 14.3293C12.7753 15.2122 9.48884 15.5067 5.30609 14.0351C1.9599 12.8577 -0.470078 13.937 -1.26679 14.6237L0.82458 18.1557Z" fill="#FF8833"/>
<path d="M5.91095 10.7666C5.91095 11.1164 5.6274 11.4 5.27762 11.4C4.92784 11.4 4.64429 11.1164 4.64429 10.7666C4.64429 10.4169 4.92784 10.1333 5.27762 10.1333C5.6274 10.1333 5.91095 10.4169 5.91095 10.7666Z" fill="#FF8833"/>
<path d="M8.02216 12.8777C8.02216 13.2275 7.73861 13.5111 7.38883 13.5111C7.03905 13.5111 6.75549 13.2275 6.75549 12.8777C6.75549 12.5279 7.03905 12.2444 7.38883 12.2444C7.73861 12.2444 8.02216 12.5279 8.02216 12.8777Z" fill="#FF8833"/>
<path d="M6.33332 14.1446C6.33332 14.4943 6.04976 14.7779 5.69998 14.7779C5.3502 14.7779 5.06665 14.4943 5.06665 14.1446C5.06665 13.7948 5.3502 13.5112 5.69998 13.5112C6.04976 13.5112 6.33332 13.7948 6.33332 14.1446Z" fill="#FF8833"/>
</g>
<path d="M0 17.0447C0 16.4924 0.447715 16.0447 1 16.0447H11.6667C12.219 16.0447 12.6667 16.4924 12.6667 17.0447V18.0002C12.6667 18.5525 12.219 19.0002 11.6667 19.0002H1C0.447716 19.0002 0 18.5525 0 18.0002V17.0447Z" fill="#FF8833"/>
<path d="M0 0.999999C0 0.447714 0.447715 0 1 0H11.6667C12.219 0 12.6667 0.447715 12.6667 1V1.95556C12.6667 2.50784 12.219 2.95556 11.6667 2.95556H1C0.447716 2.95556 0 2.50784 0 1.95556V0.999999Z" fill="#FF8833"/>
</svg>
