<svg width="24" height="22" viewBox="0 0 24 22" fill="none" xmlns="http://www.w3.org/2000/svg">
<path d="M14.2499 16.9467C17.657 15.5949 19.3232 11.7371 17.9714 8.32994C16.6195 4.92283 12.7617 3.25667 9.35456 4.60848C5.94744 5.96029 4.28128 9.81817 5.63309 13.2253C6.98491 16.6324 10.8428 18.2986 14.2499 16.9467Z" fill="#FF8833"/>
<path d="M17.3644 7.14749C16.445 8.59138 14.614 10.0525 11.9559 11.1072C9.29785 12.1618 6.94301 12.4762 5.28374 12.0554C2.94585 13.3963 1.32175 14.5687 1.5736 15.2035C1.99073 16.2548 7.27782 16.0398 12.9907 13.7731C18.7036 11.5065 22.7 8.03821 22.2828 6.98688C22.031 6.35211 19.9857 6.52076 17.3644 7.14749Z" fill="#8D33FF"/>
<path d="M6.80004 19.3977C6.06233 19.1154 5.6651 18.4549 5.48855 18.0689C5.47913 18.0485 5.46317 18.0311 5.44268 18.0188C5.4222 18.0065 5.39812 18 5.37348 18C5.34884 18 5.32475 18.0065 5.30427 18.0188C5.28379 18.0311 5.26782 18.0485 5.25841 18.0689C5.08107 18.4549 4.68226 19.1175 3.95006 19.3977C3.92777 19.4063 3.90878 19.4206 3.89544 19.4388C3.88211 19.457 3.875 19.4782 3.875 19.5C3.875 19.5218 3.88211 19.543 3.89544 19.5612C3.90878 19.5794 3.92777 19.5937 3.95006 19.6023C4.68699 19.8846 5.08422 20.5458 5.25998 20.9311C5.2694 20.9515 5.28536 20.9689 5.30584 20.9812C5.32633 20.9935 5.35041 21 5.37505 21C5.39969 21 5.42378 20.9935 5.44426 20.9812C5.46474 20.9689 5.4807 20.9515 5.49012 20.9311C5.66825 20.5458 6.06706 19.8839 6.80162 19.6016C6.82362 19.5927 6.84226 19.5783 6.85529 19.5602C6.86832 19.542 6.87516 19.5208 6.875 19.4992C6.87483 19.4776 6.86766 19.4565 6.85435 19.4385C6.84104 19.4204 6.82218 19.4063 6.80004 19.3977Z" fill="#8D33FF"/>
<path d="M17.2281 1.54248C16.4139 1.23096 15.9756 0.502012 15.7807 0.0760113C15.7703 0.0535141 15.7527 0.0342838 15.7301 0.0207533C15.7075 0.00722268 15.6809 0 15.6537 0C15.6265 0 15.6 0.00722268 15.5773 0.0207533C15.5547 0.0342838 15.5371 0.0535141 15.5267 0.0760113C15.331 0.502012 14.8909 1.2333 14.0828 1.54248C14.0582 1.55202 14.0373 1.56779 14.0226 1.58785C14.0078 1.60792 14 1.6314 14 1.65541C14 1.67941 14.0078 1.70289 14.0226 1.72296C14.0373 1.74302 14.0582 1.75879 14.0828 1.76833C14.8961 2.07985 15.3345 2.80958 15.5285 3.2348C15.5389 3.2573 15.5565 3.27653 15.5791 3.29006C15.6017 3.30359 15.6283 3.31081 15.6555 3.31081C15.6827 3.31081 15.7092 3.30359 15.7318 3.29006C15.7544 3.27653 15.7721 3.2573 15.7825 3.2348C15.979 2.80958 16.4192 2.07907 17.2298 1.76755C17.2541 1.75776 17.2747 1.74186 17.2891 1.72179C17.3034 1.70172 17.311 1.67835 17.3108 1.65451C17.3106 1.63067 17.3027 1.60739 17.288 1.5875C17.2733 1.56761 17.2525 1.55197 17.2281 1.54248Z" fill="#8D33FF"/>
<path d="M20.9409 3.75045C20.3594 3.52794 20.0462 3.00726 19.9071 2.70298C19.8996 2.68691 19.8871 2.67317 19.8709 2.66351C19.8548 2.65384 19.8358 2.64868 19.8164 2.64868C19.7969 2.64868 19.778 2.65384 19.7618 2.66351C19.7457 2.67317 19.7331 2.68691 19.7257 2.70298C19.5859 3.00726 19.2715 3.52961 18.6943 3.75045C18.6767 3.75727 18.6618 3.76853 18.6512 3.78286C18.6407 3.79719 18.6351 3.81397 18.6351 3.83112C18.6351 3.84826 18.6407 3.86503 18.6512 3.87937C18.6618 3.8937 18.6767 3.90496 18.6943 3.91177C19.2752 4.13429 19.5883 4.65552 19.7269 4.95925C19.7343 4.97532 19.7469 4.98906 19.7631 4.99872C19.7792 5.00839 19.7982 5.01355 19.8176 5.01355C19.837 5.01355 19.856 5.00839 19.8722 4.99872C19.8883 4.98906 19.9009 4.97532 19.9083 4.95925C20.0487 4.65552 20.3631 4.13373 20.9422 3.91122C20.9595 3.90423 20.9742 3.89287 20.9845 3.87853C20.9947 3.8642 21.0001 3.8475 21 3.83047C20.9999 3.81344 20.9942 3.79682 20.9837 3.78261C20.9732 3.7684 20.9584 3.75723 20.9409 3.75045V3.75045Z" fill="#8D33FF"/>
</svg>
