<svg width="16" height="18" viewBox="0 0 16 18" fill="none" xmlns="http://www.w3.org/2000/svg">
<path d="M7.3125 0.5625C7.3125 0.25184 7.56434 0 7.875 0C8.18566 0 8.4375 0.25184 8.4375 0.5625V5.0625H7.3125V0.5625Z" fill="#8D33FF"/>
<path fill-rule="evenodd" clip-rule="evenodd" d="M8.94442 3.96393C8.7279 4.06247 8.28581 4.21875 7.87499 4.21875C7.4642 4.21875 7.02216 4.0625 6.80561 3.96396C6.25974 3.61398 5.56441 3.375 4.69623 3.375C1.65645 3.375 -0.21418 5.90625 0.0196492 9C0.253478 12.0938 1.89027 18 6.33303 18C6.85365 18 7.34853 17.8761 7.875 17.4442C8.40146 17.8761 8.89634 18 9.41696 18C13.8597 18 15.4965 12.0938 15.7303 9C15.9642 5.90625 14.0935 3.375 11.0538 3.375C10.1856 3.375 9.49029 3.61396 8.94442 3.96393Z" fill="#FF8833"/>
<path fill-rule="evenodd" clip-rule="evenodd" d="M11.7145 1.15C11.6524 1.59817 11.2981 2.57224 10.378 2.88322C9.22799 3.27192 8.45859 2.8913 8.26416 2.31631L8.26386 2.31641C8.0695 1.74134 8.4502 0.971917 9.60033 0.58319C10.5203 0.272241 11.3928 0.831517 11.7141 1.15012L11.7145 1.15Z" fill="#8D33FF"/>
</svg>
