<svg width="21" height="18" viewBox="0 0 21 18" fill="none" xmlns="http://www.w3.org/2000/svg">
<path fill-rule="evenodd" clip-rule="evenodd" d="M2.22451 2.8302C2.46745 2.52896 2.9086 2.48169 3.20985 2.72463L10.4507 8.56404C10.752 8.80698 10.7992 9.24813 10.5563 9.54938C10.3133 9.85063 9.87219 9.89789 9.57095 9.65495L2.33008 3.81555C2.02884 3.5726 1.98157 3.13145 2.22451 2.8302Z" fill="#8D33FF"/>
<path d="M18.8649 3.93872C15.2758 1.506 12.1865 6.49346 12.1865 6.49346C12.1865 6.49346 9.05389 1.506 5.4648 3.93872C2.28892 6.08407 4.51636 11.8549 12.1432 16.3503C19.8133 11.8549 22.0407 6.12344 18.8649 3.93872Z" fill="#FF8833"/>
<path fill-rule="evenodd" clip-rule="evenodd" d="M12.0331 9.83967C12.2749 9.53748 12.7158 9.48848 13.018 9.73024L17.6895 13.4675C17.9917 13.7092 18.0407 14.1502 17.799 14.4524C17.5572 14.7546 17.1163 14.8036 16.8141 14.5618L12.1425 10.8246C11.8403 10.5828 11.7913 10.1419 12.0331 9.83967Z" fill="#8D33FF"/>
<path d="M1.70761 4.7546L1.22568 2.34551C1.1628 2.0312 1.42792 1.74838 1.74563 1.79084L4.1808 2.11627C4.55742 2.16661 4.71961 2.62158 4.45974 2.8988L2.50651 4.98245C2.24665 5.25966 1.78215 5.12718 1.70761 4.7546Z" fill="#8D33FF"/>
<path d="M15.8502 15.7067V13.0803L18.186 14.866V16.7967C18.186 17.1854 17.7389 17.4041 17.432 17.1654L16.0306 16.0754C15.9168 15.9869 15.8502 15.8508 15.8502 15.7067Z" fill="#8D33FF"/>
<path d="M18.3861 12.5552L15.8502 13.0793L18.1664 14.955L19.8973 14.5973C20.278 14.5186 20.4016 14.0365 20.1058 13.7843L18.7837 12.6572C18.674 12.5637 18.5273 12.5261 18.3861 12.5552Z" fill="#8D33FF"/>
</svg>
