<svg width="18" height="16" viewBox="0 0 18 16" fill="none" xmlns="http://www.w3.org/2000/svg">
<path d="M11.385 11.462C11.3263 11.7693 11.2359 12.072 11.1139 12.3567C11.1365 12.3024 11.1591 12.2482 11.1817 12.194C11.0371 12.5329 10.8519 12.8537 10.6259 13.1429C10.6621 13.0977 10.6982 13.0525 10.7299 13.0073C10.5175 13.283 10.2735 13.527 9.99785 13.7393C10.043 13.7032 10.0882 13.667 10.1334 13.6354C9.86681 13.8388 9.57762 14.0105 9.27036 14.1415C9.32458 14.1189 9.3788 14.0963 9.43303 14.0737C9.1348 14.2002 8.82302 14.2861 8.5022 14.3313C8.56095 14.3222 8.62421 14.3132 8.68295 14.3087C8.37117 14.3493 8.05939 14.3493 7.74761 14.3087C7.80635 14.3177 7.86961 14.3268 7.92835 14.3313C7.61205 14.2906 7.30479 14.2048 7.01108 14.0828C7.06531 14.1053 7.11953 14.1279 7.17375 14.1505C6.8936 14.0331 6.63152 13.8749 6.38752 13.6896C6.43271 13.7258 6.47789 13.7619 6.52308 13.7936C6.26552 13.5948 6.03959 13.3643 5.84078 13.1113C5.87693 13.1565 5.91307 13.2016 5.9447 13.2468C5.73685 12.9757 5.56515 12.6775 5.42959 12.3612C5.45218 12.4154 5.47478 12.4696 5.49737 12.5239C5.35277 12.1804 5.25337 11.819 5.20366 11.4484C5.2127 11.5072 5.22174 11.5704 5.22625 11.6292C5.17655 11.2451 5.17655 10.852 5.22625 10.4679C5.21722 10.5267 5.20818 10.5899 5.20366 10.6487C5.2127 10.5673 5.22626 10.4815 5.24433 10.4001C5.27144 10.3098 5.27596 10.2194 5.25788 10.129C5.25337 10.0387 5.22626 9.9528 5.17655 9.87598C5.09522 9.73591 4.93255 9.60035 4.76988 9.5642C4.59818 9.52354 4.40388 9.53257 4.24573 9.63198C4.10565 9.72235 3.96558 9.86695 3.93395 10.0387C3.84358 10.5221 3.80291 11.0147 3.85262 11.5027C3.90232 11.9726 3.99721 12.429 4.17795 12.8627C4.27736 13.0977 4.37677 13.3282 4.50781 13.545C4.63884 13.7619 4.78796 13.9653 4.95062 14.1596C5.23529 14.5075 5.58322 14.8012 5.96278 15.0407C6.15256 15.1627 6.35137 15.2576 6.55923 15.3479C6.7716 15.4383 6.98397 15.5151 7.20538 15.5648C7.65272 15.6688 8.12717 15.714 8.58354 15.6642C8.83658 15.6371 9.08962 15.5965 9.33362 15.5287C9.5731 15.4609 9.80355 15.366 10.034 15.2666C10.4452 15.0814 10.8202 14.8193 11.1546 14.5211C11.498 14.2138 11.8007 13.8478 12.0402 13.4547C12.2888 13.0525 12.4785 12.6007 12.605 12.1443C12.6322 12.0358 12.6593 11.9274 12.6819 11.819C12.709 11.7286 12.7135 11.6382 12.6954 11.5478C12.6909 11.4575 12.6638 11.3716 12.6141 11.2948C12.5328 11.1547 12.3701 11.0192 12.2074 10.983C12.0357 10.9424 11.8414 10.9514 11.6833 11.0508C11.5522 11.1502 11.4167 11.2903 11.385 11.462Z" fill="#8D33FF"/>
<path d="M15.7628 14.2733C14.9611 14.2733 14.3004 13.6174 14.3004 12.811V1.96235C14.3004 1.16073 14.9563 0.5 15.7628 0.5C16.5644 0.5 17.2251 1.15587 17.2251 1.96235V12.8158C17.2203 13.6174 16.5644 14.2733 15.7628 14.2733Z" fill="#FF8833"/>
<path d="M1.96235 11.4696C1.16073 11.4696 0.5 10.8137 0.5 10.0072V4.76997C0.5 3.96835 1.15587 3.30762 1.96235 3.30762C2.76397 3.30762 3.42471 3.96349 3.42471 4.76997V10.0072C3.41985 10.8089 2.76397 11.4696 1.96235 11.4696Z" fill="#FF8833"/>
<path d="M3.35522 4.70515L15.2522 1.92773V12.8729L3.35522 10.139V4.70515Z" fill="#FF8833"/>
</svg>
