<svg width="19" height="18" viewBox="0 0 19 18" fill="none" xmlns="http://www.w3.org/2000/svg">
<path d="M7.5 0.5H11.5C11.7761 0.5 12 0.723858 12 1V3C12 3.27614 11.7761 3.5 11.5 3.5H7.5V0.5Z" fill="#8D33FF"/>
<path fill-rule="evenodd" clip-rule="evenodd" d="M7.49999 5.90379e-09C7.63806 2.97039e-05 7.74997 0.111983 7.74994 0.250054L7.74866 6.21054C7.74863 6.34861 7.63667 6.46051 7.4986 6.46048C7.36053 6.46045 7.24863 6.3485 7.24866 6.21043L7.24994 0.249946C7.24997 0.111875 7.36192 -2.96772e-05 7.49999 5.90379e-09Z" fill="#8D33FF"/>
<path fill-rule="evenodd" clip-rule="evenodd" d="M0.0666173 17.2519L7.05667 5.01927C7.25034 4.68035 7.74033 4.68415 7.92871 5.02603L11.3377 11.2127L12.7716 8.67782C12.9648 8.33638 13.4579 8.34019 13.6458 8.68457L18.3233 17.2601C18.5051 17.5933 18.2639 17.9996 17.8844 17.9996H14.2507C14.2443 17.9998 14.2378 17.9999 14.2312 17.9999H0.500739C0.116827 17.9999 -0.123856 17.5852 0.0666173 17.2519Z" fill="#FF8833"/>
<mask id="mask0_301_247" style="mask-type:alpha" maskUnits="userSpaceOnUse" x="0" y="4" width="19" height="14">
<path fill-rule="evenodd" clip-rule="evenodd" d="M0.0666173 17.2519L7.05667 5.01927C7.25034 4.68035 7.74033 4.68415 7.92871 5.02603L11.3377 11.2127L12.7716 8.67782C12.9648 8.33638 13.4579 8.34019 13.6458 8.68457L18.3233 17.2601C18.5051 17.5933 18.2639 17.9996 17.8844 17.9996H14.2507C14.2443 17.9998 14.2378 17.9999 14.2312 17.9999H0.500739C0.116827 17.9999 -0.123856 17.5852 0.0666173 17.2519Z" fill="#731DE0"/>
</mask>
<g mask="url(#mask0_301_247)">
<path d="M11 7.49976H4.5V4.49976H11V7.49976Z" fill="#8D33FF"/>
</g>
</svg>
