<svg width="18" height="18" viewBox="0 0 18 18" fill="none" xmlns="http://www.w3.org/2000/svg">
<path d="M17.5 9C17.5 13.6944 13.6944 17.5 9 17.5C4.30558 17.5 0.5 13.6944 0.5 9C0.5 4.30558 4.30558 0.5 9 0.5C13.6944 0.5 17.5 4.30558 17.5 9Z" fill="#FF8833"/>
<mask id="mask0_301_460" style="mask-type:alpha" maskUnits="userSpaceOnUse" x="0" y="0" width="18" height="18">
<path d="M17.5 9C17.5 13.6944 13.6944 17.5 9 17.5C4.30558 17.5 0.5 13.6944 0.5 9C0.5 4.30558 4.30558 0.5 9 0.5C13.6944 0.5 17.5 4.30558 17.5 9Z" fill="#FF8833"/>
</mask>
<g mask="url(#mask0_301_460)">
<path fill-rule="evenodd" clip-rule="evenodd" d="M-1.5 1.5C-5.91828 1.5 -9.5 5.08172 -9.5 9.5C-9.5 13.9183 -5.91828 17.5 -1.5 17.5C2.91828 17.5 6.5 13.9183 6.5 9.5C6.5 5.08172 2.91828 1.5 -1.5 1.5ZM-10.5 9.5C-10.5 4.52944 -6.47056 0.5 -1.5 0.5C3.47056 0.5 7.5 4.52944 7.5 9.5C7.5 14.4706 3.47056 18.5 -1.5 18.5C-6.47056 18.5 -10.5 14.4706 -10.5 9.5Z" fill="#8D33FF"/>
<path fill-rule="evenodd" clip-rule="evenodd" d="M19.5 1.5C15.0817 1.5 11.5 5.08172 11.5 9.5C11.5 13.9183 15.0817 17.5 19.5 17.5C23.9183 17.5 27.5 13.9183 27.5 9.5C27.5 5.08172 23.9183 1.5 19.5 1.5ZM10.5 9.5C10.5 4.52944 14.5294 0.5 19.5 0.5C24.4706 0.5 28.5 4.52944 28.5 9.5C28.5 14.4706 24.4706 18.5 19.5 18.5C14.5294 18.5 10.5 14.4706 10.5 9.5Z" fill="#8D33FF"/>
<path fill-rule="evenodd" clip-rule="evenodd" d="M8.5 21.25V-2.5H9.5V21.25H8.5Z" fill="#8D33FF"/>
<path fill-rule="evenodd" clip-rule="evenodd" d="M-3 9L20.75 9L20.75 10L-3 10L-3 9Z" fill="#8D33FF"/>
</g>
</svg>
