<svg width="112" height="56" viewBox="0 0 112 56" fill="none" xmlns="http://www.w3.org/2000/svg">
<rect width="112" height="56" rx="28" fill="white"/>
<rect x="4" y="4" width="48" height="48" rx="24" fill="#0066FF"/>
<path fill-rule="evenodd" clip-rule="evenodd" d="M24 30.2819V33.7181C24 34.1638 23.9536 34.3255 23.8664 34.4884C23.7793 34.6514 23.6514 34.7793 23.4884 34.8664C23.3255 34.9536 23.1638 35 22.7181 35H21C19.3431 35 18 33.6569 18 32C18 30.6938 18.8348 29.5825 20 29.1707V27C20 22.5817 23.5817 19 28 19C32.4183 19 36 22.5817 36 27V29.1707C37.1652 29.5825 38 30.6938 38 32C38 33.6569 36.6569 35 35 35H33.2819C32.8362 35 32.6745 34.9536 32.5116 34.8664C32.3486 34.7793 32.2207 34.6514 32.1336 34.4884C32.0464 34.3255 32 34.1638 32 33.7181V30.2819C32 29.8362 32.0464 29.6745 32.1336 29.5116C32.2207 29.3486 32.3486 29.2207 32.5116 29.1336C32.6745 29.0464 32.8362 29 33.2819 29H34V27C34 23.6863 31.3137 21 28 21C24.6863 21 22 23.6863 22 27V29H22.7181C23.1638 29 23.3255 29.0464 23.4884 29.1336C23.6514 29.2207 23.7793 29.3486 23.8664 29.5116C23.9536 29.6745 24 29.8362 24 30.2819Z" fill="white"/>
<path fill-rule="evenodd" clip-rule="evenodd" d="M76 26C76 25.4477 76.4477 25 77 25H87C87.5523 25 88 25.4477 88 26C88 26.5523 87.5523 27 87 27H77C76.4477 27 76 26.5523 76 26ZM76 22C76 21.4477 76.4477 21 77 21H91C91.5523 21 92 21.4477 92 22C92 22.5523 91.5523 23 91 23H77C76.4477 23 76 22.5523 76 22ZM76 30C76 29.4477 76.4477 29 77 29H91C91.5523 29 92 29.4477 92 30C92 30.5523 91.5523 31 91 31H77C76.4477 31 76 30.5523 76 30ZM76 34C76 33.4477 76.4477 33 77 33H84C84.5523 33 85 33.4477 85 34C85 34.5523 84.5523 35 84 35H77C76.4477 35 76 34.5523 76 34Z" fill="black"/>
<rect x="0.5" y="0.5" width="111" height="55" rx="27.5" stroke="black" stroke-opacity="0.1"/>
</svg>
