<svg width="57" height="56" viewBox="0 0 57 56" fill="none" xmlns="http://www.w3.org/2000/svg">
<path d="M0.5 19.2C0.5 12.4794 0.5 9.11905 1.80792 6.55211C2.9584 4.29417 4.79417 2.4584 7.05211 1.30792C9.61905 0 12.9794 0 19.7 0H37.3C44.0206 0 47.3809 0 49.9479 1.30792C52.2058 2.4584 54.0416 4.29417 55.1921 6.55211C56.5 9.11905 56.5 12.4794 56.5 19.2V36.8C56.5 43.5206 56.5 46.8809 55.1921 49.4479C54.0416 51.7058 52.2058 53.5416 49.9479 54.6921C47.3809 56 44.0206 56 37.3 56H19.7C12.9794 56 9.61905 56 7.05211 54.6921C4.79417 53.5416 2.9584 51.7058 1.80792 49.4479C0.5 46.8809 0.5 43.5206 0.5 36.8V19.2Z" fill="url(#paint0_linear_301_3122)"/>
<path d="M19.7 0.5H37.3C40.6686 0.5 43.1649 0.500389 45.1409 0.66183C47.111 0.822794 48.5197 1.14136 49.7209 1.75343C51.8848 2.85597 53.644 4.61525 54.7466 6.77911C55.3586 7.98035 55.6772 9.38904 55.8382 11.3591C55.9996 13.3351 56 15.8314 56 19.2V36.8C56 40.1686 55.9996 42.6649 55.8382 44.6409C55.6772 46.611 55.3586 48.0197 54.7466 49.2209C53.644 51.3848 51.8848 53.144 49.7209 54.2466C48.5197 54.8586 47.111 55.1772 45.1409 55.3382C43.1649 55.4996 40.6686 55.5 37.3 55.5H19.7C16.3314 55.5 13.8351 55.4996 11.8591 55.3382C9.88904 55.1772 8.48035 54.8586 7.27911 54.2466C5.11525 53.144 3.35597 51.3848 2.25343 49.2209C1.64136 48.0197 1.32279 46.611 1.16183 44.6409C1.00039 42.6649 1 40.1686 1 36.8V19.2C1 15.8314 1.00039 13.3351 1.16183 11.3591C1.32279 9.38904 1.64136 7.98035 2.25343 6.77911C3.35597 4.61525 5.11525 2.85597 7.27911 1.75343C8.48035 1.14136 9.88904 0.822794 11.8591 0.66183C13.8351 0.500389 16.3314 0.5 19.7 0.5Z" stroke="white" stroke-opacity="0.2"/>
<path d="M18.7109 40.769L18.7161 40.7706L16.8268 44.043C16.1372 45.2375 14.6097 45.6467 13.4152 44.9571C12.2208 44.2675 11.8115 42.7401 12.5011 41.5456L14.0265 38.9036C14.265 38.5607 14.8537 37.9691 16.0312 38.0802C17.3289 38.2211 19.8193 39.1221 18.7109 40.769ZM45.5077 32.411H39.6161C39.2149 32.3841 39.0397 32.2408 38.9709 32.1575L38.9665 32.1499L32.6598 21.2264L32.6517 21.2319L32.2734 20.6896C31.6536 19.7417 30.6692 22.1661 30.6692 22.1661C29.494 24.8676 30.836 27.9392 31.3039 28.8675L40.0636 44.0396C40.7531 45.2341 42.2806 45.6434 43.4751 44.9537C44.6695 44.2641 45.0788 42.7367 44.3892 41.5422L42.1987 37.7483C42.1564 37.6564 42.0825 37.4068 42.5317 37.4058H45.5077C46.8869 37.4058 48.0051 36.2876 48.0051 34.9084C48.0051 33.5291 46.8869 32.411 45.5077 32.411ZM34.0644 35.8061C34.0644 35.8061 34.3789 37.4057 33.1621 37.4057H31.9453L11.3827 37.4058C10.0034 37.4058 8.8853 36.2876 8.8853 34.9084C8.8853 33.5291 10.0034 32.411 11.3827 32.411H16.9819C17.8859 32.3586 18.1003 31.8367 18.1003 31.8367L18.1052 31.8393L25.414 19.1799L25.4119 19.1794C25.5451 18.9349 25.4342 18.7038 25.4149 18.6672L23.0011 14.4865C22.3115 13.292 22.7207 11.7646 23.9152 11.075C25.1097 10.3853 26.6371 10.7946 27.3267 11.9891L28.4462 13.9281L29.5637 11.9926C30.2533 10.7981 31.7807 10.3888 32.9752 11.0785C34.1697 11.7681 34.579 13.2955 33.8893 14.49L23.7188 32.1057C23.6743 32.213 23.6607 32.3813 23.9916 32.411H30.0709H30.0722C30.0722 32.411 33.5859 32.5249 34.0644 35.8061Z" fill="white"/>
<defs>
<linearGradient id="paint0_linear_301_3122" x1="28.5" y1="56" x2="28.5" y2="0" gradientUnits="userSpaceOnUse">
<stop stop-color="#1D76F2"/>
<stop offset="1" stop-color="#1AC2FB"/>
</linearGradient>
</defs>
</svg>
