<svg width="16" height="16" viewBox="0 0 16 16" fill="none" xmlns="http://www.w3.org/2000/svg">
<path fill-rule="evenodd" clip-rule="evenodd" d="M9.4886 6.60667L8.1486 3.26978C8.09428 3.1345 8.04509 3.01221 8.00013 2.90135C7.95516 3.01221 7.90597 3.1345 7.85165 3.26978L6.51165 6.60667L2.924 6.84993C2.77855 6.85979 2.64704 6.86878 2.52772 6.87729C2.61926 6.95431 2.72036 7.03888 2.83223 7.13234L5.59172 9.43792L4.71443 12.9251C4.67886 13.0665 4.64678 13.1944 4.61799 13.3105C4.71953 13.2472 4.83121 13.1772 4.95467 13.0997L8.00013 11.1877L11.0456 13.0997C11.169 13.1772 11.2807 13.2472 11.3823 13.3105C11.3535 13.1944 11.3214 13.0665 11.2858 12.9251L10.4085 9.43792L13.168 7.13235C13.2799 7.03888 13.381 6.95431 13.4725 6.87729C13.3532 6.86878 13.2217 6.85979 13.0763 6.84993L9.4886 6.60667ZM5.58629 5.33302L2.8338 5.51965C1.67493 5.59823 1.09549 5.63752 0.848512 5.88236C0.634312 6.09471 0.535935 6.39749 0.58441 6.69518C0.640303 7.03844 1.08598 7.41081 1.97734 8.15554L4.09445 9.92441L3.42138 12.5999C3.13801 13.7263 2.99632 14.2895 3.15286 14.6001C3.28863 14.8694 3.54618 15.0565 3.84429 15.1024C4.18801 15.1553 4.67988 14.8465 5.66361 14.2289L8.00013 12.762L10.3366 14.2289C11.3204 14.8465 11.8122 15.1553 12.156 15.1024C12.4541 15.0565 12.7116 14.8694 12.8474 14.6001C13.0039 14.2895 12.8622 13.7263 12.5789 12.5999L11.9058 9.92441L14.0229 8.15554C14.9143 7.41081 15.3599 7.03844 15.4158 6.69518C15.4643 6.39749 15.3659 6.09471 15.1517 5.88236C14.9048 5.63752 14.3253 5.59823 13.1665 5.51965L10.414 5.33302L9.3859 2.77291C8.95306 1.69505 8.73664 1.15611 8.42745 0.996883C8.1593 0.858787 7.84095 0.858787 7.5728 0.996883C7.26362 1.15611 7.04719 1.69505 6.61435 2.77292L5.58629 5.33302Z" fill="#FF8833"/>
<mask id="mask0_301_1827" style="mask-type:alpha" maskUnits="userSpaceOnUse" x="0" y="0" width="16" height="16">
<path d="M6.61435 2.77292C7.04719 1.69505 7.26362 1.15611 7.5728 0.996883C7.84095 0.858787 8.1593 0.858787 8.42745 0.996882C8.73664 1.15611 8.95306 1.69505 9.3859 2.77291L10.414 5.33302L13.1665 5.51965C14.3253 5.59823 14.9048 5.63752 15.1517 5.88236C15.3659 6.09471 15.4643 6.39749 15.4158 6.69518C15.3599 7.03844 14.9143 7.41081 14.0229 8.15555L11.9058 9.92441L12.5789 12.5999C12.8622 13.7263 13.0039 14.2895 12.8474 14.6001C12.7116 14.8694 12.4541 15.0565 12.156 15.1024C11.8122 15.1553 11.3204 14.8465 10.3366 14.2289L8.00013 12.762L5.66361 14.2289C4.67988 14.8465 4.18801 15.1553 3.84429 15.1024C3.54618 15.0565 3.28863 14.8694 3.15286 14.6001C2.99632 14.2895 3.13801 13.7263 3.42139 12.5999L4.09445 9.92441L1.97734 8.15555C1.08598 7.41081 0.640303 7.03844 0.58441 6.69518C0.535935 6.39749 0.634312 6.09471 0.848512 5.88236C1.09549 5.63752 1.67493 5.59823 2.8338 5.51965L5.58629 5.33302L6.61435 2.77292Z" fill="#FF8833"/>
</mask>
<g mask="url(#mask0_301_1827)">
<rect width="9.5" height="16" fill="#FF8833"/>
</g>
</svg>
